<svg width="27" height="24" viewBox="0 0 27 24" fill="none" xmlns="http://www.w3.org/2000/svg">
<path d="M9.50058 20.1447L10.4641 18.9872L9.50058 20.1447ZM13.4175 4.9041L12.306 5.92064C12.5801 6.22055 12.9655 6.39489 13.3734 6.40345C13.7813 6.41202 14.1766 6.25408 14.4679 5.96604L13.4175 4.9041ZM16.4344 20.2903L17.3288 21.4869L16.4344 20.2903ZM9.50058 20.1447L10.4641 18.9872C8.73746 17.5555 6.95524 16.2372 5.55263 14.572C4.19972 12.9659 3.31649 11.1576 3.38435 8.84849L1.88468 8.81699L0.385007 8.7855C0.289679 12.0295 1.57462 14.5254 3.25057 16.5151C4.87681 18.4457 6.98414 20.0147 8.53703 21.3022L9.50058 20.1447ZM1.88468 8.81699L3.38435 8.84849C3.44948 6.63212 4.75359 4.83395 6.42948 4.11223C8.00918 3.43194 10.189 3.60435 12.306 5.92064L13.4175 4.9041L14.529 3.88756C11.6682 0.757347 8.16319 0.109674 5.26172 1.35918C2.45646 2.56726 0.48306 5.44879 0.385007 8.7855L1.88468 8.81699ZM9.50058 20.1447L8.53703 21.3022C9.10219 21.7708 9.74899 22.3051 10.4183 22.7176C11.087 23.1298 11.9185 23.5115 12.8701 23.5315L12.9142 22.0321L12.9582 20.5328C12.7688 20.5288 12.4721 20.4466 12.0086 20.1609C11.5457 19.8756 11.0563 19.4781 10.4641 18.9872L9.50058 20.1447ZM16.4344 20.2903L17.3288 21.4869C18.9554 20.2661 21.1522 18.7875 22.8899 16.9275C24.6806 15.0107 26.1106 12.5718 26.2059 9.32779L24.7062 9.2963L23.2066 9.2648C23.1387 11.5739 22.1504 13.3429 20.7048 14.8903C19.2061 16.4945 17.3486 17.7364 15.54 19.0938L16.4344 20.2903ZM24.7062 9.2963L26.2059 9.32779C26.304 5.99109 24.5022 3.03027 21.7714 1.70592C18.9469 0.336155 15.4082 0.835896 12.367 3.84216L13.4175 4.9041L14.4679 5.96604C16.7183 3.74148 18.9056 3.66079 20.4434 4.40655C22.0748 5.19774 23.2717 7.04843 23.2066 9.2648L24.7062 9.2963ZM16.4344 20.2903L15.54 19.0938C14.9198 19.5592 14.4076 19.9357 13.9285 20.2013C13.4488 20.4671 13.1477 20.5368 12.9582 20.5328L12.9142 22.0321L12.8701 23.5315C13.8217 23.5515 14.6746 23.2051 15.3667 22.8215C16.0594 22.4376 16.7368 21.9312 17.3288 21.4869L16.4344 20.2903Z" fill="black"/>
</svg>
