<svg width="25" height="25" viewBox="0 0 25 25" fill="none" xmlns="http://www.w3.org/2000/svg">
<path d="M23.0005 12.5197C23.0005 11.6564 22.9291 11.0264 22.7744 10.373H12.7148V14.2697H18.6196C18.5006 15.238 17.8577 16.6964 16.4291 17.6763L16.4091 17.8068L19.5897 20.2215L19.8101 20.243C21.8338 18.4114 23.0005 15.7163 23.0005 12.5197Z" fill="#4285F4"/>
<path d="M12.714 22.7867C15.6068 22.7867 18.0353 21.8533 19.8092 20.2433L16.4282 17.6766C15.5235 18.2949 14.3092 18.7266 12.714 18.7266C9.88069 18.7266 7.47596 16.895 6.61874 14.3633L6.49309 14.3737L3.18583 16.8821L3.14258 16.9999C4.90446 20.4299 8.5235 22.7867 12.714 22.7867Z" fill="#34A853"/>
<path d="M6.62095 14.3633C6.39476 13.71 6.26386 13.01 6.26386 12.2867C6.26386 11.5633 6.39476 10.8633 6.60905 10.21L6.60306 10.0708L3.25435 7.52222L3.14478 7.57329C2.41862 8.99664 2.00195 10.595 2.00195 12.2867C2.00195 13.9783 2.41862 15.5766 3.14478 17L6.62095 14.3633Z" fill="#FBBC05"/>
<path d="M12.7141 5.84659C14.7259 5.84659 16.083 6.69826 16.8569 7.40997L19.8807 4.51662C18.0236 2.82496 15.6069 1.78662 12.7141 1.78662C8.52353 1.78662 4.90447 4.14327 3.14258 7.57324L6.60686 10.2099C7.47598 7.67828 9.88073 5.84659 12.7141 5.84659Z" fill="#EB4335"/>
</svg>
