<svg width="30" height="31" viewBox="0 0 30 31" fill="none" xmlns="http://www.w3.org/2000/svg">
<path d="M14.9063 0.734375C11.9859 0.734375 9.13111 1.60036 6.70291 3.22283C4.27472 4.8453 2.38217 7.15137 1.2646 9.84944C0.147023 12.5475 -0.145386 15.5164 0.424349 18.3806C0.994084 21.2449 2.40037 23.8759 4.46538 25.9409C6.53039 28.0059 9.16137 29.4122 12.0256 29.9819C14.8899 30.5516 17.8587 30.2592 20.5568 29.1417C23.2549 28.0241 25.561 26.1315 27.1834 23.7033C28.8059 21.2751 29.6719 18.4204 29.6719 15.5C29.6675 11.5852 28.1105 7.83207 25.3423 5.06392C22.5742 2.29577 18.821 0.738717 14.9063 0.734375ZM8.28497 24.8748C9.04659 23.8334 10.0431 22.9863 11.1936 22.4024C12.3441 21.8185 13.6161 21.5142 14.9063 21.5142C16.1964 21.5142 17.4684 21.8185 18.6189 22.4024C19.7694 22.9863 20.7659 23.8334 21.5275 24.8748C19.5924 26.2472 17.2786 26.9843 14.9063 26.9843C12.5339 26.9843 10.2201 26.2472 8.28497 24.8748ZM11.0781 14.4062C11.0781 13.6491 11.3026 12.909 11.7233 12.2795C12.1439 11.6499 12.7418 11.1593 13.4413 10.8695C14.1408 10.5798 14.9105 10.504 15.6531 10.6517C16.3957 10.7994 17.0778 11.164 17.6131 11.6994C18.1485 12.2347 18.5131 12.9168 18.6608 13.6594C18.8085 14.402 18.7327 15.1717 18.443 15.8712C18.1532 16.5707 17.6626 17.1686 17.033 17.5892C16.4035 18.0099 15.6634 18.2344 14.9063 18.2344C13.891 18.2344 12.9173 17.8311 12.1994 17.1131C11.4814 16.3952 11.0781 15.4215 11.0781 14.4062ZM23.9297 22.6012C22.8663 21.2487 21.5109 20.1541 19.9648 19.3992C20.9502 18.4014 21.6184 17.1345 21.8855 15.7579C22.1526 14.3813 22.0066 12.9564 21.4659 11.6626C20.9252 10.3687 20.0139 9.26365 18.8467 8.48641C17.6795 7.70917 16.3085 7.29446 14.9063 7.29446C13.504 7.29446 12.133 7.70917 10.9658 8.48641C9.79861 9.26365 8.88734 10.3687 8.34663 11.6626C7.80593 12.9564 7.65994 14.3813 7.92702 15.7579C8.19411 17.1345 8.86234 18.4014 9.84766 19.3992C8.3016 20.1541 6.9462 21.2487 5.88282 22.6012C4.54714 20.908 3.7152 18.8729 3.48224 16.7289C3.24929 14.5849 3.62472 12.4187 4.56557 10.4781C5.50642 8.5376 6.97467 6.90118 8.80223 5.75621C10.6298 4.61125 12.7428 4.00401 14.8994 4.00401C17.056 4.00401 19.169 4.61125 20.9966 5.75621C22.8242 6.90118 24.2924 8.5376 25.2333 10.4781C26.1741 12.4187 26.5496 14.5849 26.3166 16.7289C26.0836 18.8729 25.2517 20.908 23.916 22.6012H23.9297Z" fill="black"/>
</svg>
