<svg width="29" height="26" viewBox="0 0 29 26" fill="none" xmlns="http://www.w3.org/2000/svg">
<path d="M12.125 23.3125C12.125 23.7761 11.9875 24.2292 11.73 24.6146C11.4725 25 11.1064 25.3004 10.6782 25.4778C10.2499 25.6552 9.77865 25.7017 9.32401 25.6112C8.86936 25.5208 8.45175 25.2976 8.12397 24.9698C7.79619 24.642 7.57297 24.2244 7.48253 23.7697C7.3921 23.3151 7.43851 22.8438 7.61591 22.4156C7.7933 21.9873 8.0937 21.6213 8.47913 21.3637C8.86456 21.1062 9.3177 20.9688 9.78125 20.9688C10.4029 20.9688 10.999 21.2157 11.4385 21.6552C11.8781 22.0948 12.125 22.6909 12.125 23.3125ZM21.9688 20.9688C21.5052 20.9688 21.0521 21.1062 20.6666 21.3637C20.2812 21.6213 19.9808 21.9873 19.8034 22.4156C19.626 22.8438 19.5796 23.3151 19.67 23.7697C19.7605 24.2244 19.9837 24.642 20.3115 24.9698C20.6392 25.2976 21.0569 25.5208 21.5115 25.6112C21.9662 25.7017 22.4374 25.6552 22.8657 25.4778C23.2939 25.3004 23.66 25 23.9175 24.6146C24.175 24.2292 24.3125 23.7761 24.3125 23.3125C24.3125 22.6909 24.0656 22.0948 23.626 21.6552C23.1865 21.2157 22.5904 20.9688 21.9688 20.9688ZM28.0004 6.85117L24.8023 17.2457C24.5982 17.9179 24.1827 18.5064 23.6175 18.9237C23.0524 19.3411 22.3678 19.5651 21.6652 19.5625H10.1246C9.412 19.5602 8.71933 19.327 8.15038 18.8979C7.58143 18.4688 7.16685 17.8669 6.96875 17.1824L2.96211 3.15625H1.8125C1.43954 3.15625 1.08185 3.00809 0.818131 2.74437C0.554408 2.48065 0.40625 2.12296 0.40625 1.75C0.40625 1.37704 0.554408 1.01935 0.818131 0.755631C1.08185 0.491908 1.43954 0.34375 1.8125 0.34375H3.31484C3.82384 0.345322 4.3186 0.511893 4.72491 0.818474C5.13122 1.12506 5.42717 1.55512 5.56836 2.04414L6.42266 5.03125H26.6562C26.8763 5.03123 27.0933 5.08287 27.2898 5.18201C27.4863 5.28115 27.6568 5.42502 27.7875 5.60205C27.9183 5.77908 28.0057 5.98432 28.0426 6.20128C28.0796 6.41823 28.0651 6.64083 28.0004 6.85117ZM24.752 7.84375H7.22539L9.67344 16.4102C9.70147 16.5082 9.76067 16.5943 9.84209 16.6557C9.9235 16.717 10.0227 16.7501 10.1246 16.75H21.6652C21.7656 16.7502 21.8633 16.7182 21.9441 16.6587C22.0249 16.5992 22.0845 16.5154 22.1141 16.4195L24.752 7.84375Z" fill="black"/>
</svg>
